inDegrees=no
num_controls=7
num_derivatives=13
num_iterations=108
num_multipliers=7
num_parameters=0
num_slacks=7
num_states=26
objective=0.448429
objective_accelerations=0.049504
objective_balance=0.007530
objective_effort=0.036767
objective_height=0.349688
objective_ligament=0.004939
solver_duration=1529.061253
status=Solve_Succeeded
success=true
DataType=double
version=3
OpenSimVersion=4.5
endheader
time	/jointset/ground_pelvis/pelvis_tilt/value	/jointset/ground_pelvis/pelvis_tx/value	/jointset/ground_pelvis/pelvis_ty/value	/jointset/hip_l/hip_flexion_l/value	/jointset/hip_l/hip_adduction_l/value	/jointset/hip_l/hip_rotation_l/value	/jointset/back/lumbar_extension/value	/jointset/patellofemoral_l/patellar_flexion_l/value	/jointset/knee_l/knee_flexion_l/value	/jointset/knee_l/knee_adduction_l/value	/jointset/knee_l/knee_rotation_l/value	/jointset/ankle_l/ankle_angle_l/value	/jointset/subtalar_l/subtalar_angle_l/value	/jointset/ground_pelvis/pelvis_tilt/speed	/jointset/ground_pelvis/pelvis_tx/speed	/jointset/ground_pelvis/pelvis_ty/speed	/jointset/hip_l/hip_flexion_l/speed	/jointset/hip_l/hip_adduction_l/speed	/jointset/hip_l/hip_rotation_l/speed	/jointset/back/lumbar_extension/speed	/jointset/patellofemoral_l/patellar_flexion_l/speed	/jointset/knee_l/knee_flexion_l/speed	/jointset/knee_l/knee_adduction_l/speed	/jointset/knee_l/knee_rotation_l/speed	/jointset/ankle_l/ankle_angle_l/speed	/jointset/subtalar_l/subtalar_angle_l/speed	/forceset/tau_hip_flexion_l	/forceset/tau_hip_adduction_l	/forceset/tau_hip_rotation_l	/forceset/tau_knee_flexion_l	/forceset/tau_ankle_angle_l	/forceset/tau_subtalar_angle_l	/forceset/tau_lumbar_extension	lambda_cid13_p0	lambda_cid13_p1	lambda_cid13_p2	lambda_cid13_p3	lambda_cid13_p4	lambda_cid13_p5	lambda_cid14_p0	/jointset/ground_pelvis/pelvis_tilt/accel	/jointset/ground_pelvis/pelvis_tx/accel	/jointset/ground_pelvis/pelvis_ty/accel	/jointset/hip_l/hip_flexion_l/accel	/jointset/hip_l/hip_adduction_l/accel	/jointset/hip_l/hip_rotation_l/accel	/jointset/back/lumbar_extension/accel	/jointset/patellofemoral_l/patellar_flexion_l/accel	/jointset/knee_l/knee_flexion_l/accel	/jointset/knee_l/knee_adduction_l/accel	/jointset/knee_l/knee_rotation_l/accel	/jointset/ankle_l/ankle_angle_l/accel	/jointset/subtalar_l/subtalar_angle_l/accel	gamma_cid13_p0	gamma_cid13_p1	gamma_cid13_p2	gamma_cid13_p3	gamma_cid13_p4	gamma_cid13_p5	gamma_cid14_p0
0.5	-0.4473695023469761	-0.07504144549219884	0.7640484343346783	1.261938166524896	-0.3095747847044142	-0.0490758463395729	-0.3265946256414971	0.6810657664484564	0.6810657664483758	-0.1728995513331809	0.1740784980847186	0.03194600359423063	-0.04982116411092088	-0.7483126456244403	-0.2763094225154856	-0.4959844276113564	2.383460178382706	-0.03638504915228727	0.6119786594092849	-0.6245920747316599	1.76587180630333	1.765871806303329	-0.005532131924743239	0.003043713188495242	0.2229169022227205	-0.01311846738713638	-0.2414643375687794	0.01842052846362229	-0.02155517870837828	-0.2040659547671306	0.1469781638373775	0.03963441021963078	0.2169962788722925	8.435661848618663	-21.42123711833829	6.132158964398875	-5.568142977145948	-605.0004633820165	-57.53037934609291	-28.75281343954408	0.5896334232110045	0.6795745182421424	-0.3438410909068636	-1.405266205507372	0.5933086732786557	-0.2594396494490379	1.654145612231633	-1.019378110639544	-1.019378110639718	0.0319309582272529	-0.03542130620979225	-0.1361219090230336	0.5689309722575834	-2.526849999038779e-07	-8.165364455475332e-07	1.27089565702757e-06	5.226740186232149e-08	-3.503410270381648e-07	4.576004107723222e-08	-2.959440366203482e-07
0.51	-0.4548214920048653	-0.07777022947063482	0.759072439734469	1.285698199119463	-0.3099105115843134	-0.04296911900805502	-0.3327578568792945	0.6986706203282841	0.6986706203282101	-0.1729563752646674	0.174107646032634	0.03416737459634207	-0.04992558596841965	-0.7419870965404589	-0.2694229728140152	-0.4991141937900074	2.368233957700377	-0.0307742041890424	0.6092709200486454	-0.6079847899454871	1.754862805617049	1.754862805617047	-0.005822742724885361	0.002805017770700006	0.2213088205565412	-0.007781240408056637	-0.2496792786329289	0.01905404613695993	-0.02164882736110014	-0.2052133272709178	0.1468159963217261	0.04020862745772784	0.2233423657000355	8.141732036604479	-21.51017955564543	6.021862625548183	-5.512456775106954	-609.4713590701884	-57.1323458273549	-27.73439248230962	0.6687047034963489	0.6968628845586277	-0.2825772649993213	-1.628205629002198	0.5427745414478828	-0.2911212472329155	1.674427344174643	-1.177020150606979	-1.177020150606894	-0.05811534608695239	-0.01556114076437635	-0.1804230705107157	0.5137462776572518	-3.107063922313554e-07	-6.590056045334252e-07	1.5468876483317e-06	1.17410791735611e-07	-3.804103957380359e-07	1.015502114208777e-07	-3.218019541008713e-07
0.52	-0.4622072883614144	-0.08042941241436435	0.7540681408957423	1.309296588381324	-0.3101905695878607	-0.03689240510371562	-0.3387529337827574	0.716158312380653	0.7161583123805842	-0.1730158169535449	0.1741349135301306	0.0363712104267724	-0.04997711001274276	-0.7350739853562892	-0.2623892155741924	-0.5016452753148744	2.351131511841784	-0.02525127388177729	0.6059759739735462	-0.5909612078647304	1.742439440811386	1.742439440811386	-0.006055683403107363	0.002667623104904345	0.219409867886549	-0.002538904752013214	-0.2578942196970815	0.01968756381029562	-0.02174247601382829	-0.2063606997747049	0.1466538288060744	0.04078284469582297	0.2296884525277765	7.843235325991398	-21.60200795449675	5.916236998446605	-5.469148816614276	-614.0297769440549	-56.81338325928755	-26.70960050457336	0.707145843248709	0.7090360259125824	-0.2241041601500551	-1.7805112407603	0.5757257420827103	-0.3768809923409535	1.73740507114843	-1.30225093451582	-1.302250934515483	0.04346498261128429	-0.01516115580988388	-0.1942961097856375	0.549952707650316	-3.0377735304393e-07	-5.893474691488566e-07	1.521470625637576e-06	1.259701351439336e-07	-3.642710231637827e-07	1.337956745599273e-07	-3.10251149148529e-07
0.53	-0.4695211472803942	-0.08301757659718326	0.7490415733257089	1.332714744312737	-0.3104157394349054	-0.03085131330969844	-0.3445756881657594	0.733514723320384	0.7335147233202653	-0.1730771464401872	0.1741610288776048	0.03855468655659219	-0.04997657420557387	-0.7276046938324601	-0.2552236145307318	-0.5035623798711597	2.332188893242625	-0.01979741443535005	0.6021577314384764	-0.5735270262227405	1.728605248384778	1.72860524838478	-0.006198664789481651	0.002559635052893768	0.2172421049732453	0.002630755525825418	-0.2660428109516268	0.02011547165404774	-0.02181790498577467	-0.2076754919176035	0.1466748879227918	0.04118308912165716	0.2359565805663246	7.591789703618788	-21.62852736877598	5.802493426841982	-5.428727547922428	-618.6918522160593	-56.41167287876038	-25.6846911013154	0.7807499716918518	0.7233492055147093	-0.1597059390431293	-1.997799173496418	0.527878568610417	-0.3972658332503311	1.755821087678204	-1.459567372431383	-1.459567372431438	-0.04147629941634957	-0.008313349829805101	-0.2345019099865923	0.4980879669967931	-2.821090473362433e-07	-5.415304639246268e-07	1.424971991170036e-06	1.182433877259067e-07	-3.359945579241753e-07	1.536296162241006e-07	-2.904514340129899e-07
